<svg width="102" height="26" viewBox="0 0 102 26" fill="none" xmlns="http://www.w3.org/2000/svg">
<path d="M29.2568 25.472C27.7687 25.472 26.5168 24.9523 25.5955 24.0074C24.7688 23.1335 24.2964 21.9288 24.2964 20.7005V3.43345H28.8553V19.6375C28.8553 20.11 28.9734 20.5351 29.186 20.8658C29.2568 20.9603 29.2804 21.0076 29.3041 21.0312C29.6584 21.48 30.2253 21.7162 30.8631 21.7162H41.4926V25.4483H29.2568V25.472Z" fill="#0159A3"/>
<path d="M50.5866 12.5748H46.0277V25.472H50.5866V12.5748Z" fill="#0159A3"/>
<path d="M58.0274 3.45708H38.5636V7.18922H58.0274V3.45708Z" fill="#FFC90D"/>
<path d="M79.8059 3.45708H62.3735V7.18922H79.8059V3.45708Z" fill="#FFC90D"/>
<path d="M67.334 25.472C65.8458 25.472 64.5939 24.9523 63.6727 24.0075C62.846 23.1335 62.3735 21.9288 62.3735 20.7005V12.5748H79.2154V16.3542H66.9324V19.6375C66.9324 20.2517 67.1214 20.7714 67.4757 21.1493C67.83 21.5272 68.3261 21.7398 68.9402 21.7398H79.617V25.472H67.334Z" fill="#FFC90D"/>
<path d="M96.577 25.4719L92.8449 20.4879L89.1127 25.4719H83.9869L90.2938 17.0392L84.4594 9.29146H89.5851L92.8449 13.6141L96.0809 9.29146H101.207L95.3959 17.0392L101.75 25.4719H96.577Z" fill="#FFC90D"/>
<path d="M6.6277 25.4719C4.92698 25.4719 3.32075 24.8105 2.11607 23.6058C0.911392 22.4012 0.25 20.7949 0.25 19.0942V3.45703H5.09233V15.9526H1.71451L9.17878 23.4169L16.6431 15.9526H13.2652V5.6538H10.3835L15.5092 0.528015L20.635 5.6538H18.0839V19.0942C18.0839 20.7949 17.4226 22.4012 16.2179 23.6058C15.0132 24.8105 13.407 25.4719 11.7062 25.4719H6.6277Z" fill="#0159A3"/>
<path d="M13.2653 5.63022H16.0526C15.6274 6.85852 15.0133 8.72458 14.3991 10.9922C13.9503 12.6457 13.5724 14.2992 13.2417 15.929V5.63022H13.2653Z" fill="#004472"/>
<path d="M46.0277 12.5748H48.319L46.0277 25.472V12.5748Z" fill="#004472"/>
<path d="M24.2726 3.45708H26.1623L24.2726 19.6848V3.45708Z" fill="#004472"/>
</svg>
