<svg width="399" height="765" viewBox="0 0 399 765" fill="none" xmlns="http://www.w3.org/2000/svg">
<g style="mix-blend-mode:color-dodge">
<line x1="298.765" y1="2.18557e-08" x2="298.765" y2="765" stroke="url(#paint0_linear_155_2113)"/>
</g>
<g style="mix-blend-mode:color-dodge">
<line x1="272.079" y1="2.18557e-08" x2="272.079" y2="460.334" stroke="url(#paint1_linear_155_2113)"/>
</g>
<g style="mix-blend-mode:color-dodge">
<line x1="176.454" y1="2.18557e-08" x2="176.454" y2="460.334" stroke="url(#paint2_linear_155_2113)"/>
</g>
<g style="mix-blend-mode:color-dodge">
<line x1="99.8431" y1="593.765" x2="99.8431" y2="151.221" stroke="url(#paint3_linear_155_2113)"/>
</g>
<g style="mix-blend-mode:color-dodge">
<line x1="146.544" y1="489.244" x2="146.544" y2="46.7005" stroke="url(#paint4_linear_155_2113)"/>
</g>
<g style="mix-blend-mode:color-dodge">
<line x1="331.122" y1="575.974" x2="331.122" y2="133.43" stroke="url(#paint5_linear_155_2113)"/>
</g>
<g style="mix-blend-mode:color-dodge">
<path d="M228.214 0L228.214 187.474C228.214 190.788 225.528 193.474 222.214 193.474L205.304 193.474C201.99 193.474 199.304 196.16 199.304 199.474L199.304 765" stroke="url(#paint6_linear_155_2113)"/>
</g>
<g style="mix-blend-mode:color-dodge">
<path d="M115.91 0L115.91 316.456C115.91 319.77 113.224 322.456 109.91 322.456L93 322.456C89.6863 322.456 87 325.143 87 328.456L87 765" stroke="url(#paint7_linear_155_2113)"/>
</g>
<g style="mix-blend-mode:color-dodge" filter="url(#filter0_f_155_2113)">
<circle cx="199.475" cy="241" r="99" fill="#547C8A"/>
</g>
<g opacity="0.6">
<g style="mix-blend-mode:overlay" filter="url(#filter1_f_155_2113)">
<ellipse cx="32.3941" cy="5.2429" rx="32.3941" ry="5.2429" transform="matrix(6.45294e-09 -1 -1 -2.20369e-08 277.933 297.777)" fill="#D9D9D9"/>
</g>
<g style="mix-blend-mode:overlay" filter="url(#filter2_f_155_2113)">
<ellipse cx="20.0535" cy="5.2429" rx="20.0535" ry="5.2429" transform="matrix(6.45294e-09 -1 -1 -2.20369e-08 277.933 285.436)" fill="#D9D9D9"/>
</g>
<g style="mix-blend-mode:plus-lighter" filter="url(#filter3_f_155_2113)">
<ellipse cx="9.25547" cy="2.62145" rx="9.25547" ry="2.62145" transform="matrix(6.45294e-09 -1 -1 -2.20369e-08 275.312 274.638)" fill="#3174D1"/>
</g>
</g>
<g opacity="0.6">
<g style="mix-blend-mode:overlay" filter="url(#filter4_f_155_2113)">
<ellipse cx="27.1461" cy="4.94388" rx="27.1461" ry="4.94388" transform="matrix(6.45294e-09 -1 -1 -2.20369e-08 233.158 171.409)" fill="#D9D9D9"/>
</g>
<g style="mix-blend-mode:overlay" filter="url(#filter5_f_155_2113)">
<ellipse cx="16.8047" cy="4.94388" rx="16.8047" ry="4.94388" transform="matrix(6.45294e-09 -1 -1 -2.20369e-08 233.158 161.068)" fill="#D9D9D9"/>
</g>
<g style="mix-blend-mode:plus-lighter" filter="url(#filter6_f_155_2113)">
<ellipse cx="7.75603" cy="2.47194" rx="7.75603" ry="2.47194" transform="matrix(6.45294e-09 -1 -1 -2.20369e-08 230.686 152.019)" fill="#3174D1"/>
</g>
</g>
<g opacity="0.6">
<g style="mix-blend-mode:overlay" filter="url(#filter7_f_155_2113)">
<ellipse cx="23.6726" cy="3.05741" rx="23.6726" ry="3.05741" transform="matrix(6.45294e-09 -1 -1 -2.20369e-08 202.361 433.583)" fill="#D9D9D9"/>
</g>
<g style="mix-blend-mode:overlay" filter="url(#filter8_f_155_2113)">
<ellipse cx="14.6545" cy="3.05741" rx="14.6545" ry="3.05741" transform="matrix(6.45294e-09 -1 -1 -2.20369e-08 202.361 424.565)" fill="#D9D9D9"/>
</g>
<g style="mix-blend-mode:plus-lighter" filter="url(#filter9_f_155_2113)">
<ellipse cx="6.76361" cy="1.5287" rx="6.76361" ry="1.5287" transform="matrix(6.45294e-09 -1 -1 -2.20369e-08 200.833 416.674)" fill="#3174D1"/>
</g>
</g>
<g opacity="0.6">
<g style="mix-blend-mode:overlay" filter="url(#filter10_f_155_2113)">
<ellipse cx="47.099" cy="5.48339" rx="47.099" ry="5.48339" transform="matrix(6.45294e-09 -1 -1 -2.20369e-08 121.024 293.547)" fill="#D9D9D9"/>
</g>
<g style="mix-blend-mode:overlay" filter="url(#filter11_f_155_2113)">
<ellipse cx="29.1565" cy="5.48339" rx="29.1565" ry="5.48339" transform="matrix(6.45294e-09 -1 -1 -2.20369e-08 121.024 275.604)" fill="#D9D9D9"/>
</g>
<g style="mix-blend-mode:plus-lighter" filter="url(#filter12_f_155_2113)">
<ellipse cx="13.4569" cy="2.74169" rx="13.4569" ry="2.74169" transform="matrix(6.45294e-09 -1 -1 -2.20369e-08 118.282 259.904)" fill="#3174D1"/>
</g>
</g>
<g opacity="0.6">
<g style="mix-blend-mode:overlay" filter="url(#filter13_f_155_2113)">
<ellipse cx="29.9023" cy="3.3082" rx="29.9023" ry="3.3082" transform="matrix(6.45294e-09 -1 -1 -2.20369e-08 302.071 392.468)" fill="#D9D9D9"/>
</g>
<g style="mix-blend-mode:overlay" filter="url(#filter14_f_155_2113)">
<ellipse cx="18.5109" cy="3.3082" rx="18.5109" ry="3.3082" transform="matrix(6.45294e-09 -1 -1 -2.20369e-08 302.07 381.076)" fill="#D9D9D9"/>
</g>
<g style="mix-blend-mode:plus-lighter" filter="url(#filter15_f_155_2113)">
<ellipse cx="8.54351" cy="1.6541" rx="8.54351" ry="1.6541" transform="matrix(6.45294e-09 -1 -1 -2.20369e-08 300.416 371.109)" fill="#3174D1"/>
</g>
</g>
<defs>
<filter id="filter0_f_155_2113" x="0.475464" y="42" width="398" height="398" filterUnits="userSpaceOnUse" color-interpolation-filters="sRGB">
<feFlood flood-opacity="0" result="BackgroundImageFix"/>
<feBlend mode="normal" in="SourceGraphic" in2="BackgroundImageFix" result="shape"/>
<feGaussianBlur stdDeviation="50" result="effect1_foregroundBlur_155_2113"/>
</filter>
<filter id="filter1_f_155_2113" x="261.748" y="227.289" width="21.8858" height="76.1883" filterUnits="userSpaceOnUse" color-interpolation-filters="sRGB">
<feFlood flood-opacity="0" result="BackgroundImageFix"/>
<feBlend mode="normal" in="SourceGraphic" in2="BackgroundImageFix" result="shape"/>
<feGaussianBlur stdDeviation="2.85" result="effect1_foregroundBlur_155_2113"/>
</filter>
<filter id="filter2_f_155_2113" x="261.748" y="239.629" width="21.8858" height="51.5069" filterUnits="userSpaceOnUse" color-interpolation-filters="sRGB">
<feFlood flood-opacity="0" result="BackgroundImageFix"/>
<feBlend mode="normal" in="SourceGraphic" in2="BackgroundImageFix" result="shape"/>
<feGaussianBlur stdDeviation="2.85" result="effect1_foregroundBlur_155_2113"/>
</filter>
<filter id="filter3_f_155_2113" x="264.369" y="250.427" width="16.6429" height="29.911" filterUnits="userSpaceOnUse" color-interpolation-filters="sRGB">
<feFlood flood-opacity="0" result="BackgroundImageFix"/>
<feBlend mode="normal" in="SourceGraphic" in2="BackgroundImageFix" result="shape"/>
<feGaussianBlur stdDeviation="2.85" result="effect1_foregroundBlur_155_2113"/>
</filter>
<filter id="filter4_f_155_2113" x="217.57" y="111.417" width="21.2878" height="65.6922" filterUnits="userSpaceOnUse" color-interpolation-filters="sRGB">
<feFlood flood-opacity="0" result="BackgroundImageFix"/>
<feBlend mode="normal" in="SourceGraphic" in2="BackgroundImageFix" result="shape"/>
<feGaussianBlur stdDeviation="2.85" result="effect1_foregroundBlur_155_2113"/>
</filter>
<filter id="filter5_f_155_2113" x="217.57" y="121.759" width="21.2878" height="45.0094" filterUnits="userSpaceOnUse" color-interpolation-filters="sRGB">
<feFlood flood-opacity="0" result="BackgroundImageFix"/>
<feBlend mode="normal" in="SourceGraphic" in2="BackgroundImageFix" result="shape"/>
<feGaussianBlur stdDeviation="2.85" result="effect1_foregroundBlur_155_2113"/>
</filter>
<filter id="filter6_f_155_2113" x="220.042" y="130.807" width="16.3438" height="26.912" filterUnits="userSpaceOnUse" color-interpolation-filters="sRGB">
<feFlood flood-opacity="0" result="BackgroundImageFix"/>
<feBlend mode="normal" in="SourceGraphic" in2="BackgroundImageFix" result="shape"/>
<feGaussianBlur stdDeviation="2.85" result="effect1_foregroundBlur_155_2113"/>
</filter>
<filter id="filter7_f_155_2113" x="190.547" y="380.538" width="17.5148" height="58.7452" filterUnits="userSpaceOnUse" color-interpolation-filters="sRGB">
<feFlood flood-opacity="0" result="BackgroundImageFix"/>
<feBlend mode="normal" in="SourceGraphic" in2="BackgroundImageFix" result="shape"/>
<feGaussianBlur stdDeviation="2.85" result="effect1_foregroundBlur_155_2113"/>
</filter>
<filter id="filter8_f_155_2113" x="190.547" y="389.556" width="17.5148" height="40.7091" filterUnits="userSpaceOnUse" color-interpolation-filters="sRGB">
<feFlood flood-opacity="0" result="BackgroundImageFix"/>
<feBlend mode="normal" in="SourceGraphic" in2="BackgroundImageFix" result="shape"/>
<feGaussianBlur stdDeviation="2.85" result="effect1_foregroundBlur_155_2113"/>
</filter>
<filter id="filter9_f_155_2113" x="192.075" y="397.447" width="14.4574" height="24.9273" filterUnits="userSpaceOnUse" color-interpolation-filters="sRGB">
<feFlood flood-opacity="0" result="BackgroundImageFix"/>
<feBlend mode="normal" in="SourceGraphic" in2="BackgroundImageFix" result="shape"/>
<feGaussianBlur stdDeviation="2.85" result="effect1_foregroundBlur_155_2113"/>
</filter>
<filter id="filter10_f_155_2113" x="104.357" y="193.649" width="22.3668" height="105.598" filterUnits="userSpaceOnUse" color-interpolation-filters="sRGB">
<feFlood flood-opacity="0" result="BackgroundImageFix"/>
<feBlend mode="normal" in="SourceGraphic" in2="BackgroundImageFix" result="shape"/>
<feGaussianBlur stdDeviation="2.85" result="effect1_foregroundBlur_155_2113"/>
</filter>
<filter id="filter11_f_155_2113" x="104.357" y="211.591" width="22.3668" height="69.713" filterUnits="userSpaceOnUse" color-interpolation-filters="sRGB">
<feFlood flood-opacity="0" result="BackgroundImageFix"/>
<feBlend mode="normal" in="SourceGraphic" in2="BackgroundImageFix" result="shape"/>
<feGaussianBlur stdDeviation="2.85" result="effect1_foregroundBlur_155_2113"/>
</filter>
<filter id="filter12_f_155_2113" x="107.099" y="227.29" width="16.8834" height="38.3138" filterUnits="userSpaceOnUse" color-interpolation-filters="sRGB">
<feFlood flood-opacity="0" result="BackgroundImageFix"/>
<feBlend mode="normal" in="SourceGraphic" in2="BackgroundImageFix" result="shape"/>
<feGaussianBlur stdDeviation="2.85" result="effect1_foregroundBlur_155_2113"/>
</filter>
<filter id="filter13_f_155_2113" x="289.754" y="326.963" width="18.0164" height="71.2044" filterUnits="userSpaceOnUse" color-interpolation-filters="sRGB">
<feFlood flood-opacity="0" result="BackgroundImageFix"/>
<feBlend mode="normal" in="SourceGraphic" in2="BackgroundImageFix" result="shape"/>
<feGaussianBlur stdDeviation="2.85" result="effect1_foregroundBlur_155_2113"/>
</filter>
<filter id="filter14_f_155_2113" x="289.754" y="338.354" width="18.0164" height="48.422" filterUnits="userSpaceOnUse" color-interpolation-filters="sRGB">
<feFlood flood-opacity="0" result="BackgroundImageFix"/>
<feBlend mode="normal" in="SourceGraphic" in2="BackgroundImageFix" result="shape"/>
<feGaussianBlur stdDeviation="2.85" result="effect1_foregroundBlur_155_2113"/>
</filter>
<filter id="filter15_f_155_2113" x="291.408" y="348.322" width="14.7082" height="28.4869" filterUnits="userSpaceOnUse" color-interpolation-filters="sRGB">
<feFlood flood-opacity="0" result="BackgroundImageFix"/>
<feBlend mode="normal" in="SourceGraphic" in2="BackgroundImageFix" result="shape"/>
<feGaussianBlur stdDeviation="2.85" result="effect1_foregroundBlur_155_2113"/>
</filter>
<linearGradient id="paint0_linear_155_2113" x1="297.765" y1="-2.18557e-08" x2="297.765" y2="765" gradientUnits="userSpaceOnUse">
<stop stop-color="#6095B0" stop-opacity="0"/>
<stop offset="0.432692" stop-color="#6095B0"/>
<stop offset="1" stop-color="#283F4A" stop-opacity="0"/>
</linearGradient>
<linearGradient id="paint1_linear_155_2113" x1="271.079" y1="-2.18557e-08" x2="271.079" y2="460.334" gradientUnits="userSpaceOnUse">
<stop stop-color="#6095B0" stop-opacity="0"/>
<stop offset="0.432692" stop-color="#6095B0"/>
<stop offset="1" stop-color="#283F4A" stop-opacity="0"/>
</linearGradient>
<linearGradient id="paint2_linear_155_2113" x1="175.454" y1="-2.18557e-08" x2="175.454" y2="460.334" gradientUnits="userSpaceOnUse">
<stop stop-color="#6095B0" stop-opacity="0"/>
<stop offset="0.432692" stop-color="#6095B0"/>
<stop offset="1" stop-color="#283F4A" stop-opacity="0"/>
</linearGradient>
<linearGradient id="paint3_linear_155_2113" x1="100.843" y1="593.765" x2="100.843" y2="151.221" gradientUnits="userSpaceOnUse">
<stop stop-color="#283F4A" stop-opacity="0"/>
<stop offset="0.807692" stop-color="#6095B0"/>
<stop offset="1" stop-color="#6095B0" stop-opacity="0"/>
</linearGradient>
<linearGradient id="paint4_linear_155_2113" x1="147.544" y1="489.244" x2="147.544" y2="46.7005" gradientUnits="userSpaceOnUse">
<stop stop-color="#283F4A" stop-opacity="0"/>
<stop offset="0.807692" stop-color="#6095B0"/>
<stop offset="1" stop-color="#6095B0" stop-opacity="0"/>
</linearGradient>
<linearGradient id="paint5_linear_155_2113" x1="332.122" y1="575.974" x2="332.122" y2="133.43" gradientUnits="userSpaceOnUse">
<stop stop-color="#283F4A" stop-opacity="0"/>
<stop offset="0.807692" stop-color="#6095B0"/>
<stop offset="1" stop-color="#6095B0" stop-opacity="0"/>
</linearGradient>
<linearGradient id="paint6_linear_155_2113" x1="213.759" y1="-6.31845e-07" x2="213.759" y2="765" gradientUnits="userSpaceOnUse">
<stop stop-color="#6095B0" stop-opacity="0"/>
<stop offset="0.432692" stop-color="#6095B0"/>
<stop offset="1" stop-color="#283F4A" stop-opacity="0"/>
</linearGradient>
<linearGradient id="paint7_linear_155_2113" x1="101.455" y1="-6.31845e-07" x2="101.455" y2="765" gradientUnits="userSpaceOnUse">
<stop stop-color="#6095B0" stop-opacity="0"/>
<stop offset="0.432692" stop-color="#6095B0"/>
<stop offset="1" stop-color="#283F4A" stop-opacity="0"/>
</linearGradient>
</defs>
</svg>
