<svg width="58" height="58" viewBox="0 0 58 58" fill="none" xmlns="http://www.w3.org/2000/svg">
<path d="M15.0025 11.1249L21.3275 17.4224L17.4225 21.3274L11.125 15.0024L4.82749 21.3274L0.922485 17.4224L7.24749 11.1249L0.922485 4.82736L4.82749 0.922363L11.125 7.24736L17.4225 0.922363L21.3275 4.82736M57.0775 40.5774L53.1725 36.6724L46.875 42.9974L40.5775 36.6724L36.6725 40.5774L42.9975 46.8749L36.6725 53.1724L40.5775 57.0774L46.875 50.7524L53.1725 57.0774L57.0775 53.1724L50.7525 46.8749M52.1 14.7824L43.245 26.2499L38.9 22.7574L42.1175 18.6324C38.0136 19.466 34.1853 21.3184 30.9848 24.0191C27.7843 26.7198 25.3144 30.1821 23.8025 34.0874C26.1961 35.8134 27.894 38.3381 28.5901 41.2058C29.2861 44.0736 28.9345 47.0957 27.5985 49.727C26.2625 52.3583 24.0302 54.4256 21.3043 55.5559C18.5783 56.6863 15.5381 56.8053 12.7322 55.8914C9.92619 54.9776 7.53914 53.0911 6.00161 50.5723C4.46407 48.0535 3.87727 45.0681 4.34705 42.1547C4.81684 39.2413 6.31228 36.5917 8.56362 34.6838C10.815 32.7759 13.674 31.7354 16.625 31.7499C17.3455 31.7528 18.0639 31.8265 18.77 31.9699C20.6752 27.2416 23.7174 23.0563 27.6268 19.7848C31.5363 16.5133 36.1924 14.2567 41.1825 13.2149L37.25 10.2449L40.7425 5.89986M23.5 44.1249C23.5 42.7651 23.0968 41.4359 22.3413 40.3053C21.5859 39.1747 20.5122 38.2935 19.2559 37.7732C17.9997 37.2528 16.6174 37.1167 15.2837 37.382C13.9501 37.6472 12.7251 38.302 11.7636 39.2635C10.8021 40.225 10.1474 41.45 9.88209 42.7836C9.61681 44.1172 9.75296 45.4996 10.2733 46.7558C10.7937 48.0121 11.6749 49.0858 12.8054 49.8412C13.936 50.5967 15.2652 50.9999 16.625 50.9999C18.4483 50.9999 20.197 50.2755 21.4863 48.9862C22.7757 47.6969 23.5 45.9482 23.5 44.1249Z" fill="url(#paint0_linear_155_2296)"/>
<defs>
<linearGradient id="paint0_linear_155_2296" x1="29" y1="0.922363" x2="29" y2="57.0774" gradientUnits="userSpaceOnUse">
<stop stop-color="#3174D1"/>
<stop offset="1" stop-color="#80B2F7"/>
</linearGradient>
</defs>
</svg>
