<svg width="54" height="54" viewBox="0 0 54 54" fill="none" xmlns="http://www.w3.org/2000/svg">
<path d="M24.25 10.4998H32.5L41.5475 1.42477C41.8032 1.16702 42.1073 0.962436 42.4424 0.822822C42.7775 0.683208 43.137 0.611328 43.5 0.611328C43.863 0.611328 44.2225 0.683208 44.5576 0.822822C44.8927 0.962436 45.1969 1.16702 45.4525 1.42477L52.5475 8.54727C53.0597 9.06252 53.3472 9.75951 53.3472 10.486C53.3472 11.2125 53.0597 11.9095 52.5475 12.4248L46.25 18.7498H24.25V24.2498C24.25 24.9791 23.9603 25.6786 23.4446 26.1943C22.9288 26.71 22.2294 26.9998 21.5 26.9998C20.7707 26.9998 20.0712 26.71 19.5555 26.1943C19.0397 25.6786 18.75 24.9791 18.75 24.2498V15.9998C18.75 14.5411 19.3295 13.1421 20.3609 12.1107C21.3924 11.0792 22.7913 10.4998 24.25 10.4998ZM7.75001 24.2498V35.2498L1.45251 41.5473C0.940322 42.0625 0.652832 42.7595 0.652832 43.486C0.652832 44.2125 0.940322 44.9095 1.45251 45.4248L8.54751 52.5473C8.80316 52.805 9.10731 53.0096 9.44243 53.1492C9.77754 53.2888 10.137 53.3607 10.5 53.3607C10.863 53.3607 11.2225 53.2888 11.5576 53.1492C11.8927 53.0096 12.1969 52.805 12.4525 52.5473L24.25 40.7498H35.25C35.9794 40.7498 36.6788 40.46 37.1946 39.9443C37.7103 39.4286 38 38.7291 38 37.9998V35.2498H40.75C41.4794 35.2498 42.1788 34.96 42.6946 34.4443C43.2103 33.9286 43.5 33.2291 43.5 32.4998V29.7498H46.25C46.9794 29.7498 47.6788 29.46 48.1946 28.9443C48.7103 28.4286 49 27.7291 49 26.9998V24.2498H29.75V26.9998C29.75 28.4585 29.1705 29.8574 28.1391 30.8889C27.1076 31.9203 25.7087 32.4998 24.25 32.4998H18.75C17.2913 32.4998 15.8924 31.9203 14.8609 30.8889C13.8295 29.8574 13.25 28.4585 13.25 26.9998V18.7498L7.75001 24.2498Z" fill="url(#paint0_linear_155_2298)"/>
<defs>
<linearGradient id="paint0_linear_155_2298" x1="27" y1="0.611328" x2="27" y2="53.3607" gradientUnits="userSpaceOnUse">
<stop stop-color="#3174D1"/>
<stop offset="1" stop-color="#80B2F7"/>
</linearGradient>
</defs>
</svg>
