<svg width="66" height="66" viewBox="0 0 66 66" fill="none" xmlns="http://www.w3.org/2000/svg">
<path d="M33.9077 64.4717L33 64.7886L32.0923 64.4717L33 61.8748L33.9077 64.4717ZM55 14.7354L33 7.03857L11 14.7354V32.9998C11 41.8627 16.4086 48.3664 22.2874 52.8245C25.1996 55.0329 28.1283 56.6578 30.3359 57.731C31.4361 58.2657 32.347 58.6612 32.9758 58.918C32.9837 58.9212 32.9922 58.9228 33 58.926C33.0078 58.9228 33.0163 58.9212 33.0242 58.918C33.653 58.6612 34.5639 58.2657 35.6641 57.731C37.8717 56.6578 40.8004 55.0329 43.7126 52.8245C49.5914 48.3664 55 41.8627 55 32.9998V14.7354ZM60.5 32.9998C60.5 44.3487 53.5333 52.281 47.0374 57.2073C43.7626 59.6906 40.5032 61.495 38.0703 62.6777C36.8502 63.2708 35.8274 63.7139 35.1028 64.0098C34.7406 64.1577 34.4517 64.2689 34.2488 64.3455C34.1473 64.3838 34.0669 64.4133 34.0098 64.4341C33.9819 64.4442 33.9594 64.4523 33.9426 64.4583C33.9345 64.4612 33.9265 64.4644 33.9211 64.4663C33.9184 64.4673 33.9151 64.4683 33.9131 64.469C33.9089 64.4603 33.8529 64.3117 33 61.8748C32.1471 64.3117 32.0938 64.4603 32.0896 64.469C32.0876 64.4683 32.0816 64.4673 32.0789 64.4663C32.0735 64.4644 32.0655 64.4612 32.0574 64.4583C32.0406 64.4523 32.0181 64.4442 31.9902 64.4341C31.9331 64.4133 31.8527 64.3838 31.7512 64.3455C31.5483 64.2689 31.2594 64.1577 30.8972 64.0098C30.1726 63.7139 29.1498 63.2708 27.9297 62.6777C25.4968 61.495 22.2374 59.6906 18.9626 57.2073C12.4667 52.281 5.5 44.3487 5.5 32.9998V10.8359L33 1.21094L60.5 10.8359V32.9998Z" fill="url(#paint0_linear_155_2299)"/>
<path d="M49.6965 22.9429L30.2504 42.3889L18.5871 30.7229L22.4758 26.8342L30.2504 34.6089L45.8078 19.0542L49.6965 22.9429Z" fill="url(#paint1_linear_155_2299)"/>
<defs>
<linearGradient id="paint0_linear_155_2299" x1="33" y1="4.12476" x2="33" y2="61.8748" gradientUnits="userSpaceOnUse">
<stop stop-color="#3174D1"/>
<stop offset="1" stop-color="#80B2F7"/>
</linearGradient>
<linearGradient id="paint1_linear_155_2299" x1="34.1413" y1="22.9429" x2="34.1413" y2="38.4996" gradientUnits="userSpaceOnUse">
<stop stop-color="#3174D1"/>
<stop offset="1" stop-color="#80B2F7"/>
</linearGradient>
</defs>
</svg>
